<?xml version="1.0" encoding="UTF-8"?><svg id="a" xmlns="http://www.w3.org/2000/svg" width="20" height="20" viewBox="0 0 20 20"><path fill="black" d="M20,10.29c0-1.27-.21-2.46-.62-3.54h-.85c.45,1.06.69,2.26.69,3.54,0,1.75-.62,3.5-1.7,4.81l.6.53c1.2-1.46,1.89-3.4,1.89-5.35Z"/><path fill="black" d="M18.42,10.29c0-1.3-.27-2.51-.78-3.54h-.9c.58,1,.89,2.21.89,3.54s-.48,2.72-1.32,3.73l.6.53c.96-1.16,1.51-2.72,1.51-4.27Z"/><path fill="black" d="M16.85,10.29c0-1.39-.37-2.61-1.06-3.54h-1.07c.15.14.3.3.43.47.6.79.92,1.86.92,3.07,0,.97-.34,1.94-.94,2.66l.6.53c.72-.87,1.13-2.04,1.13-3.2Z"/><path fill="black" d="M12.67,6.74h-4.15c-.67,1.75-.91,5.13-.91,5.13,0,0-.68-3.94-.45-5.13H2.67c-1.1,0-2.67.71-2.67,3.5,0,2.37,1.68,3.18,2.99,3.14h2.22c-.17-.64-.34-1.33-.48-2.02h-1.49s-1.24-.02-1.3-1.2c-.06-1.25,1.13-1.35,1.13-1.35h2.05c.33,3.39,1.94,7.89,2.04,8.17,0,0,2.5.01,2.5.01,0,0-.72-6.26.34-8.25l2.05.06s1.61-.12,1.61,1.32c0,.96-.73,1.23-1.52,1.23h-1.89c-.04.54-.05,1.21-.04,2.02h2.46c1.59-.02,2.69-1.51,2.69-3.09,0-2.1-1.1-3.55-2.69-3.55Z"/><path fill="black" d="M6.07 3h3.24s1 0 1 1v0.63s0 1 -1 1h-3.24s-1 0 -1 -1v-0.63s0 -1 1 -1" /></svg>